<svg width="25" height="24" viewBox="0 0 25 24" fill="none" xmlns="http://www.w3.org/2000/svg">
<path d="M14.4826 10.4215L13.9949 10.1893C13.9949 10.1893 14.0645 10.6851 13.5301 10.6851C12.9956 10.6851 13.0036 10.2358 13.0036 10.2358L12.6782 10.4061L12.8099 10.5456L12.4534 10.4603C12.4534 10.4603 12.9722 9.92578 13.4294 9.92578C13.8321 9.92578 14.1806 10.1506 14.4826 10.4215Z" fill="#144FE2"/>
<path d="M9.81525 10.8919C9.81525 10.8919 9.38145 10.4377 8.83929 10.4377C8.29714 10.4377 7.83255 11.0884 7.83255 11.0884L8.34362 10.7475C8.34362 10.7475 8.29714 11.1349 8.82885 11.1349C9.36055 11.1349 9.26262 10.6185 9.26262 10.6185C9.46397 10.6598 9.59821 10.83 9.59821 10.83L9.39163 11.0419L9.81525 10.8919ZM9.81525 10.8919C9.81525 10.8919 9.38145 10.4377 8.83929 10.4377C8.29714 10.4377 7.83255 11.0884 7.83255 11.0884L8.34362 10.7475C8.34362 10.7475 8.29714 11.1349 8.82885 11.1349C9.36055 11.1349 9.26262 10.6185 9.26262 10.6185C9.46397 10.6598 9.59821 10.83 9.59821 10.83L9.39163 11.0419L9.81525 10.8919ZM9.81525 10.8919C9.81525 10.8919 9.38145 10.4377 8.83929 10.4377C8.29714 10.4377 7.83255 11.0884 7.83255 11.0884L8.34362 10.7475C8.34362 10.7475 8.29714 11.1349 8.82885 11.1349C9.36055 11.1349 9.26262 10.6185 9.26262 10.6185C9.46397 10.6598 9.59821 10.83 9.59821 10.83L9.39163 11.0419L9.81525 10.8919ZM9.81525 10.8919C9.81525 10.8919 9.38145 10.4377 8.83929 10.4377C8.29714 10.4377 7.83255 11.0884 7.83255 11.0884L8.34362 10.7475C8.34362 10.7475 8.29714 11.1349 8.82885 11.1349C9.36055 11.1349 9.26262 10.6185 9.26262 10.6185C9.46397 10.6598 9.59821 10.83 9.59821 10.83L9.39163 11.0419L9.81525 10.8919ZM20.4906 21.2659C20.4296 21.1438 20.3946 20.9905 20.3946 20.7916C20.3946 19.0565 19.6305 19.0047 19.584 18.2251C19.5376 17.4451 19.7441 17.9925 19.6924 16.8669C19.6407 15.7411 19.0471 15.1471 19.0471 14.8478C19.0471 14.5485 19.3672 14.5842 19.3361 13.6549C19.3052 12.7253 18.9206 11.9971 18.9206 11.4911C18.9206 9.56894 18.2389 9.34554 18.1924 8.48554C18.0794 6.39248 16.8603 5.01526 15.9 4.20203C14.9398 3.3888 14.1033 3.18742 13.6051 3.18742C12.9161 3.18742 12.6498 2.86719 12.1077 2.86719C11.4571 2.86719 10.1715 3.39375 9.80479 3.77588C9.80479 3.77588 8.76695 3.83806 7.3652 5.24003C6.00994 6.59551 5.83939 8.8806 5.80089 9.21377C5.78879 9.31748 5.8295 9.62836 5.89085 10.0069L5.72608 9.99865L5.77751 10.4842L5.97116 10.4743C6.10402 11.2202 6.26548 12.01 6.26548 12.01C6.26548 12.01 6.29245 12.0166 6.32793 12.0466C6.49599 12.007 6.68359 12.0642 6.68359 12.0642C6.68359 12.0642 6.66213 12.0031 6.63051 11.8961C6.73448 12.1 6.85908 12.2818 7.00652 12.4051C7.3773 12.7148 7.61085 12.7503 8.00282 12.7358C8.68966 12.7099 10.4039 12.9267 10.3833 9.98325C10.3934 9.67843 10.8685 9.70951 10.8685 9.70951C10.8685 9.70951 11.3023 9.63716 11.3281 10.1227C11.354 10.608 11.8081 12.2295 13.3364 12.1831C14.865 12.1366 15.4998 11.8268 15.6909 10.1277C15.7388 9.70181 15.7117 9.5959 15.7117 9.5959L15.9955 9.33261L16.5844 9.95024L16.597 10.12L17.0074 10.9643C17.0074 10.9643 17.0927 11.9093 16.876 12.4439C16.876 12.4439 17.0111 12.4356 17.2657 11.4911C17.4336 10.8688 17.9988 10.7863 18.2158 10.7863C18.4329 10.7863 18.8044 10.9255 18.8044 11.5376C18.8044 12.1498 18.4945 12.7305 18.0995 13.4585C17.7044 14.1867 17.3175 14.45 17.0154 14.45C16.7135 14.45 16.5582 14.2874 16.5582 14.2874C16.5582 14.2874 16.3995 14.9856 15.9176 15.7816L16.078 16.526C16.078 16.526 16.1096 16.5051 16.2852 17.457L11.8959 19.8103L9.28766 18.5148C9.26978 18.0542 9.24722 17.5639 9.24722 17.5639L9.28298 17.4908C8.55295 16.9453 7.89443 16.2396 7.68291 15.4494C7.68291 15.4494 7.05548 15.2789 6.86182 14.2797C6.86182 14.2797 6.55981 13.7143 6.51332 13.598C6.51332 13.598 6.41292 13.4417 6.30674 13.2211C6.29326 13.4568 6.22477 14.5229 6.08723 14.853C5.93237 15.2247 5.96345 16.3865 5.96345 16.3865C5.35941 17.5793 5.62265 18.3696 5.62265 18.3696C5.15806 18.8653 5.23535 19.5934 5.23535 19.5934L5.14237 20.9413C4.89427 21.2986 4.7119 21.5811 4.57794 21.8039C5.7357 22.7336 7.06648 23.4564 8.51416 23.9165C8.44594 23.6244 8.33344 23.4066 8.33344 22.9862C8.33344 22.4546 8.75292 21.8873 8.94851 21.4739L10.5018 22.1961L11.9888 20.585L13.228 22.3201L15.7185 20.8527C15.5383 21.1834 15.3967 21.4829 15.3967 21.7779C15.3967 22.6096 15.8345 22.99 15.654 24.0002C17.4792 23.4671 19.1277 22.5196 20.4906 21.2659ZM10.1662 10.2878C10.0325 12.2598 9.21613 12.4774 8.01849 12.4774C6.82085 12.4774 6.39725 10.8972 6.45913 10.3189C6.52569 9.69824 7.56408 9.51337 7.56408 9.51337C7.21282 9.89548 7.21282 10.35 7.21282 10.35C7.49173 9.77141 8.17335 9.52354 8.17335 9.52354L9.02002 9.51337L9.22659 9.38928C9.73271 9.38928 10.2075 9.67843 10.1662 10.2878ZM15.3813 9.57526L15.2985 10.8248C15.2985 10.8248 15.2572 11.9299 13.285 11.9299C11.6739 11.9299 11.4159 9.81268 11.4159 9.81268C11.4159 9.48227 11.9217 8.86271 13.6978 8.86271C15.4739 8.86271 15.3813 9.57526 15.3813 9.57526ZM14.7978 8.718L14.1679 8.12405C14.1679 8.12405 12.3709 8.3411 11.6018 9.02778L11.5553 9.23439L11.39 9.34279C11.39 9.34279 10.7084 9.31694 10.2851 9.50291L9.98055 9.38406L9.8565 9.14141C9.8565 9.14141 8.87039 8.88335 8.31282 8.88335C7.75525 8.88335 7.56408 8.92462 7.56408 8.92462L7.27498 9.39451C7.27498 9.39451 6.78261 9.58297 6.37249 9.77388C6.37523 9.7472 6.37825 9.72052 6.38156 9.69411C6.38156 9.69411 6.59061 6.87971 8.10348 5.63262C8.89624 4.97923 9.8488 4.98171 9.88236 4.82957C9.93599 4.58554 9.78938 4.13243 9.78938 4.13243L10.1767 4.71594C10.1767 4.71594 11.4236 4.54291 11.8804 4.54291C12.3373 4.54291 13.0655 4.6048 13.5999 5.09285C14.1344 5.58091 14.4983 6.42522 14.6686 6.54902C14.8391 6.6731 15.11 6.76609 15.2726 6.99828C15.4354 7.23074 15.7683 7.90477 15.869 7.95128C15.9669 7.99611 16.5563 8.21015 16.545 9.30648L16.0111 8.86271L14.7978 8.718ZM8.83929 10.4377C8.29714 10.4377 7.83255 11.0884 7.83255 11.0884L8.34362 10.7475C8.34362 10.7475 8.29714 11.1349 8.82885 11.1349C9.36055 11.1349 9.26262 10.6185 9.26262 10.6185C9.46397 10.6598 9.59821 10.83 9.59821 10.83L9.39163 11.0419L9.81525 10.8919C9.81525 10.8919 9.38145 10.4377 8.83929 10.4377ZM9.81525 10.8919C9.81525 10.8919 9.38145 10.4377 8.83929 10.4377C8.29714 10.4377 7.83255 11.0884 7.83255 11.0884L8.34362 10.7475C8.34362 10.7475 8.29714 11.1349 8.82885 11.1349C9.36055 11.1349 9.26262 10.6185 9.26262 10.6185C9.46397 10.6598 9.59821 10.83 9.59821 10.83L9.39163 11.0419L9.81525 10.8919ZM12.4468 14.6068C12.1206 14.2244 11.0379 14.2541 11.0379 14.2541C11.0379 14.2541 10.8998 14.3281 10.762 14.3548C10.4704 14.4115 10.3777 14.4027 10.3777 14.4027C10.2223 14.5111 9.78856 14.9116 9.77728 15.0968C9.766 15.2822 10.024 15.3226 10.024 15.3226L10.1981 15.2882L10.2785 15.2324L10.4685 15.2054L10.8091 15.1097L11.0753 15.0931C11.0753 15.0931 11.2607 15.0241 11.3587 15.0202C11.4566 15.0159 11.8573 14.965 11.8573 14.965L12.0416 14.9152L12.399 14.8161L12.4413 14.7633C12.4823 14.7124 12.4861 14.6527 12.4468 14.6068ZM12.4229 14.897C12.4141 14.8828 12.3901 14.8767 12.3673 14.8831L12.0491 14.9714L11.9478 15.033C11.9478 15.033 11.464 15.0719 11.3661 15.0761C11.2679 15.0802 11.1006 15.165 11.1006 15.165L10.8162 15.1659L10.4757 15.2613L10.2856 15.2882L10.2053 15.3444L10.0312 15.3785L9.95002 15.4902C10.1981 16.1493 11.3133 15.8608 11.3133 15.8608C11.3133 15.8608 11.8956 15.773 12.276 15.4831C12.5934 15.2413 12.4719 14.9779 12.4229 14.897ZM9.81525 10.8919C9.81525 10.8919 9.38145 10.4377 8.83929 10.4377C8.29714 10.4377 7.83255 11.0884 7.83255 11.0884L8.34362 10.7475C8.34362 10.7475 8.29714 11.1349 8.82885 11.1349C9.36055 11.1349 9.26262 10.6185 9.26262 10.6185C9.46397 10.6598 9.59821 10.83 9.59821 10.83L9.39163 11.0419L9.81525 10.8919ZM9.81525 10.8919C9.81525 10.8919 9.38145 10.4377 8.83929 10.4377C8.29714 10.4377 7.83255 11.0884 7.83255 11.0884L8.34362 10.7475C8.34362 10.7475 8.29714 11.1349 8.82885 11.1349C9.36055 11.1349 9.26262 10.6185 9.26262 10.6185C9.46397 10.6598 9.59821 10.83 9.59821 10.83L9.39163 11.0419L9.81525 10.8919ZM9.81525 10.8919C9.81525 10.8919 9.38145 10.4377 8.83929 10.4377C8.29714 10.4377 7.83255 11.0884 7.83255 11.0884L8.34362 10.7475C8.34362 10.7475 8.29714 11.1349 8.82885 11.1349C9.36055 11.1349 9.26262 10.6185 9.26262 10.6185C9.46397 10.6598 9.59821 10.83 9.59821 10.83L9.39163 11.0419L9.81525 10.8919Z" fill="#144FE2"/>
<path d="M23.451 16.9634C23.948 15.6487 24.22 14.2233 24.22 12.7347C24.22 6.12841 18.8658 0.773616 12.2609 0.773616C5.65596 0.773616 0.302025 6.12841 0.302025 12.7347C0.302025 15.1073 0.992721 17.319 2.18431 19.1787C0.828781 17.233 0.0253062 14.8745 0.000550136 12.3292C0.000275068 12.3184 0.000275068 12.308 0.000275068 12.2973C0 12.2865 0 12.2758 0 12.2653C0 12.2579 0 12.2502 0.000275068 12.2428C0 12.2312 0 12.2194 0 12.2079C0 5.46594 5.4645 0 12.2059 0C16.7351 0 20.6879 2.46748 22.7947 6.13144C22.7966 6.13501 22.7988 6.13886 22.801 6.14271C23.8256 7.92957 24.4116 10.0003 24.4116 12.2079C24.4116 13.8948 24.0696 15.5021 23.451 16.9634Z" fill="#144FE2"/>
<path d="M8.9375 20.3987C8.9375 20.7706 9.15425 20.8944 9.01479 21.3129C8.99802 21.3631 8.97545 21.4169 8.94851 21.4735C8.75292 21.887 8.33345 22.4543 8.33345 22.9858C8.33345 23.4063 8.44594 23.624 8.51416 23.9162C7.06648 23.456 5.7357 22.7332 4.57794 21.8036C4.7119 21.5808 4.89427 21.2983 5.14237 20.9409L5.23535 19.5931C5.23535 19.5931 5.15806 18.8649 5.62265 18.3692C5.62265 18.3692 5.35941 17.579 5.96345 16.3861C5.96345 16.3861 5.93237 15.2243 6.08723 14.8526C6.22477 14.5225 6.29326 13.4565 6.30674 13.2207C6.41292 13.4413 6.51332 13.5976 6.51332 13.5976C6.55981 13.714 6.86182 14.2793 6.86182 14.2793C7.05548 15.2786 7.68291 15.4491 7.68291 15.4491C7.89443 16.2393 8.55295 16.9449 9.28298 17.4904L9.24722 17.5636C9.24722 17.5636 9.26978 18.0538 9.28766 18.5144C9.29948 18.8175 9.30911 19.1079 9.30911 19.2369C9.30911 19.5621 8.9375 20.027 8.9375 20.3987Z" fill="#144FE2"/>
<path d="M15.6541 24.0002C15.8345 22.99 15.3967 22.6096 15.3967 21.7779C15.3967 21.4829 15.5383 21.1834 15.7185 20.8527C16.0874 20.1756 16.6166 19.3699 16.4191 18.2146C16.3671 17.9106 16.3228 17.6614 16.2852 17.457C16.1096 16.5051 16.0781 16.526 16.0781 16.526L15.9176 15.7816C16.3995 14.9856 16.5582 14.2874 16.5582 14.2874C16.5582 14.2874 16.7132 14.45 17.0154 14.45C17.3178 14.45 17.7044 14.1867 18.0995 13.4585C18.4945 12.7305 18.8044 12.1495 18.8044 11.5376C18.8044 10.9258 18.4326 10.7863 18.2158 10.7863C17.9991 10.7863 17.4336 10.8688 17.2658 11.4911C17.0111 12.4356 16.876 12.4439 16.876 12.4439C17.0927 11.9093 17.0074 10.9643 17.0074 10.9643L16.597 10.12L16.5844 9.95024L16.5428 9.39974C16.544 9.36811 16.5447 9.33674 16.545 9.30648C16.5563 8.21015 15.9669 7.99611 15.869 7.95128C15.7683 7.90477 15.4354 7.23074 15.2726 6.99828C15.1101 6.76609 14.8391 6.6731 14.6686 6.54902C14.4983 6.42522 14.1344 5.58091 13.5999 5.09285C13.0654 4.6048 12.3373 4.54291 11.8805 4.54291C11.4236 4.54291 10.1767 4.71594 10.1767 4.71594L9.78939 4.13243C9.78939 4.13243 9.93599 4.58554 9.88236 4.82957C9.84879 4.98171 8.89625 4.97923 8.10349 5.63262C6.59062 6.87971 6.38156 9.69411 6.38156 9.69411C6.37826 9.72052 6.37524 9.7472 6.37248 9.77388C6.19479 9.85698 6.0325 9.94033 5.93238 10.0091L5.89084 10.0069C5.82951 9.62836 5.78879 9.31748 5.8009 9.21377C5.8394 8.8806 6.00995 6.59551 7.36521 5.24003C8.76696 3.83806 9.8048 3.77588 9.8048 3.77588C10.1715 3.39375 11.4571 2.86719 12.1077 2.86719C12.6498 2.86719 12.9161 3.18742 13.6051 3.18742C14.1033 3.18742 14.9398 3.3888 15.9 4.20203C16.8603 5.01526 18.0794 6.39248 18.1924 8.48554C18.2389 9.34554 18.9206 9.56894 18.9206 11.4911C18.9206 11.9971 19.3052 12.7253 19.3361 13.6549C19.3672 14.5842 19.0471 14.5482 19.0471 14.8478C19.0471 15.1474 19.6407 15.7411 19.6924 16.8669C19.7441 17.9925 19.5375 17.4451 19.584 18.2251C19.6305 19.0047 20.3946 19.0565 20.3946 20.7916C20.3946 20.9905 20.4296 21.1438 20.4906 21.2659C19.1277 22.5196 17.4792 23.4671 15.6541 24.0002Z" fill="#144FE2"/>
<path d="M6.68362 12.0638C6.68362 12.0638 6.49602 12.0066 6.32795 12.0462C6.29247 12.0162 6.2655 12.0096 6.2655 12.0096C6.2655 12.0096 6.10405 11.2197 5.97119 10.4739L6.19069 10.4629C6.19069 10.4629 6.31612 11.2794 6.63052 11.8957C6.66215 12.0027 6.68362 12.0638 6.68362 12.0638Z" fill="#144FE2"/>
<path d="M9.39168 11.0416L9.59825 10.8298C9.59825 10.8298 9.46402 10.6595 9.26267 10.6183C9.26267 10.6183 9.36086 11.1346 8.82888 11.1346C8.29691 11.1346 8.34366 10.7473 8.34366 10.7473L7.83258 11.0882C7.83258 11.0882 8.29717 10.4375 8.83934 10.4375C9.3815 10.4375 9.81528 10.8917 9.81528 10.8917L9.39168 11.0416Z" fill="#144FE2"/>
<path d="M13.9949 10.1893C13.9949 10.1893 14.0645 10.6851 13.5301 10.6851C12.9956 10.6851 13.0036 10.2358 13.0036 10.2358L12.6782 10.4061L12.8099 10.5456L12.4534 10.4603C12.4534 10.4603 12.9722 9.92578 13.4294 9.92578C13.8321 9.92578 14.1806 10.1506 14.4826 10.4215L13.9949 10.1893Z" fill="#144FE2"/>
<path d="M16.5844 9.94925L16.5428 9.39875C16.544 9.36711 16.5447 9.33574 16.545 9.30549L16.0111 8.86173L14.7978 8.71702L14.1679 8.12305C14.1679 8.12305 12.3709 8.34011 11.6018 9.02679L11.5553 9.2334L11.39 9.3418C11.39 9.3418 10.7084 9.31594 10.2851 9.50192L9.98055 9.38306L9.85649 9.14042C9.85649 9.14042 8.87037 8.88236 8.31282 8.88236C7.75524 8.88236 7.56407 8.92362 7.56407 8.92362L7.27498 9.39352C7.27498 9.39352 6.78261 9.58198 6.37247 9.7729C6.19479 9.85599 6.03249 9.93934 5.93237 10.0081L5.89083 10.0059L5.72607 9.99767L5.77751 10.4832L5.97116 10.4733L6.19067 10.4623C6.19067 10.4623 6.31609 11.2789 6.63049 11.8951C6.73447 12.099 6.85908 12.2808 7.00652 12.4041C7.3773 12.7139 7.61084 12.7493 8.00282 12.7348C8.68966 12.7089 10.4039 12.9257 10.3833 9.98226C10.3934 9.67743 10.8685 9.70853 10.8685 9.70853C10.8685 9.70853 11.3023 9.63617 11.3281 10.1217C11.354 10.607 11.8081 12.2286 13.3364 12.1821C14.865 12.1356 15.4998 11.8258 15.6909 10.1267C15.7388 9.70082 15.7117 9.5949 15.7117 9.5949L15.9955 9.33162L16.5844 9.94925ZM10.1662 10.2868C10.0325 12.2588 9.21613 12.4764 8.01849 12.4764C6.82084 12.4764 6.39723 10.8962 6.45913 10.3179C6.52569 9.69725 7.56407 9.51237 7.56407 9.51237C7.21281 9.8945 7.21282 10.349 7.21282 10.349C7.49173 9.77042 8.17335 9.52256 8.17335 9.52256L9.02002 9.51237L9.22659 9.38829C9.73271 9.38829 10.2075 9.67745 10.1662 10.2868ZM15.3813 9.57428L15.2985 10.8238C15.2985 10.8238 15.2572 11.929 13.2849 11.929C11.6739 11.929 11.4159 9.8117 11.4159 9.8117C11.4159 9.48128 11.9217 8.86173 13.6978 8.86173C15.4739 8.86173 15.3813 9.57428 15.3813 9.57428Z" fill="#144FE2"/>
<path d="M9.39168 11.0416L9.59825 10.8298C9.59825 10.8298 9.46402 10.6595 9.26267 10.6183C9.26267 10.6183 9.36086 11.1346 8.82888 11.1346C8.29691 11.1346 8.34366 10.7473 8.34366 10.7473L7.83258 11.0882C7.83258 11.0882 8.29717 10.4375 8.83934 10.4375C9.3815 10.4375 9.81528 10.8917 9.81528 10.8917L9.39168 11.0416Z" fill="#144FE2"/>
<path d="M13.9949 10.1893C13.9949 10.1893 14.0645 10.6851 13.5301 10.6851C12.9956 10.6851 13.0036 10.2358 13.0036 10.2358L12.6782 10.4061L12.8099 10.5456L12.4534 10.4603C12.4534 10.4603 12.9722 9.92578 13.4294 9.92578C13.8321 9.92578 14.1806 10.1506 14.4826 10.4215L13.9949 10.1893Z" fill="#144FE2"/>
<path d="M13.9949 10.1893C13.9949 10.1893 14.0645 10.6851 13.5301 10.6851C12.9956 10.6851 13.0036 10.2358 13.0036 10.2358L12.6782 10.4061L12.8099 10.5456L12.4534 10.4603C12.4534 10.4603 12.9722 9.92578 13.4294 9.92578C13.8321 9.92578 14.1806 10.1506 14.4826 10.4215L13.9949 10.1893Z" fill="#144FE2"/>
<path d="M9.39168 11.0416L9.59825 10.8298C9.59825 10.8298 9.46402 10.6595 9.26267 10.6183C9.26267 10.6183 9.36086 11.1346 8.82888 11.1346C8.29691 11.1346 8.34366 10.7473 8.34366 10.7473L7.83258 11.0882C7.83258 11.0882 8.29717 10.4375 8.83934 10.4375C9.3815 10.4375 9.81528 10.8917 9.81528 10.8917L9.39168 11.0416Z" fill="#144FE2"/>
<path d="M9.39168 11.0416L9.59825 10.8298C9.59825 10.8298 9.46402 10.6595 9.26267 10.6183C9.26267 10.6183 9.36086 11.1346 8.82888 11.1346C8.29691 11.1346 8.34366 10.7473 8.34366 10.7473L7.83258 11.0882C7.83258 11.0882 8.29717 10.4375 8.83934 10.4375C9.3815 10.4375 9.81528 10.8917 9.81528 10.8917L9.39168 11.0416Z" fill="#144FE2"/>
<path d="M13.9949 10.1893C13.9949 10.1893 14.0645 10.6851 13.5301 10.6851C12.9956 10.6851 13.0036 10.2358 13.0036 10.2358L12.6782 10.4061L12.8099 10.5456L12.4534 10.4603C12.4534 10.4603 12.9722 9.92578 13.4294 9.92578C13.8321 9.92578 14.1806 10.1506 14.4826 10.4215L13.9949 10.1893Z" fill="#144FE2"/>
<path d="M13.7283 10.1273C13.735 10.0958 13.6865 10.0588 13.6199 10.0446C13.5534 10.0304 13.494 10.0444 13.4873 10.0759C13.4805 10.1075 13.5291 10.1445 13.5956 10.1587C13.6622 10.1729 13.7216 10.1588 13.7283 10.1273Z" fill="#144FE2"/>
<path d="M9.05826 10.6293C9.06497 10.5978 9.01645 10.5607 8.94989 10.5465C8.88333 10.5324 8.82392 10.5464 8.81721 10.5779C8.8105 10.6094 8.85902 10.6464 8.92558 10.6606C8.99214 10.6748 9.05155 10.6608 9.05826 10.6293Z" fill="#144FE2"/>
<path d="M18.9594 18.9429L15.7185 20.8523V20.8526L13.228 22.32L11.9888 20.5849L10.5018 22.196L8.94849 21.4738L6.10291 20.1511L7.34209 17.5485L9.28765 18.5147L11.8959 19.8103L16.2852 17.4569L17.9057 16.5879L18.9594 18.9429Z" fill="#144FE2"/>
<path d="M12.2059 0C5.4645 0 0 5.46594 0 12.2079C0 12.2194 0 12.2312 0.000275068 12.2428C0.012103 5.50253 5.47908 0.0420923 12.2213 0.0420923C16.7357 0.0420923 20.6782 2.49004 22.7947 6.13144C20.6879 2.46748 16.7351 0 12.2059 0ZM12.2059 0C5.4645 0 0 5.46594 0 12.2079C0 12.2194 0 12.2312 0.000275068 12.2428C0.012103 5.50253 5.47908 0.0420923 12.2213 0.0420923C16.7357 0.0420923 20.6782 2.49004 22.7947 6.13144C20.6879 2.46748 16.7351 0 12.2059 0ZM12.2059 0C5.4645 0 0 5.46594 0 12.2079C0 12.2194 0 12.2312 0.000275068 12.2428C0.012103 5.50253 5.47908 0.0420923 12.2213 0.0420923C16.7357 0.0420923 20.6782 2.49004 22.7947 6.13144C20.6879 2.46748 16.7351 0 12.2059 0Z" fill="#144FE2"/>
<path d="M23.451 16.9634C23.948 15.6487 24.22 14.2233 24.22 12.7347C24.22 6.12841 18.8658 0.773616 12.2609 0.773616C5.65596 0.773616 0.302025 6.12841 0.302025 12.7347C0.302025 15.1073 0.992721 17.319 2.18431 19.1787C0.828781 17.233 0.0253062 14.8745 0.000550136 12.3292C0.000275068 12.3184 0.000275068 12.308 0.000275068 12.2973C0.000275068 12.2791 0 12.2609 0.000275068 12.2428C0 12.2312 0 12.2194 0 12.2079C0 5.46594 5.4645 0 12.2059 0C16.7351 0 20.6879 2.46748 22.7947 6.13144C22.7966 6.13501 22.7988 6.13886 22.801 6.14271C23.8256 7.92957 24.4116 10.0003 24.4116 12.2079C24.4116 13.8948 24.0696 15.5021 23.451 16.9634Z" fill="#144FE2"/>
</svg>
