<svg width="32" height="32" viewBox="0 0 32 32" fill="none" xmlns="http://www.w3.org/2000/svg">
<path d="M28.1232 23.9279L22.1169 17.9659C21.2182 17.0716 19.8767 16.8497 18.7477 17.3676L17.5838 16.0598C18.6973 14.6411 19.3045 12.8917 19.3045 11.0944C19.3045 6.6316 15.6482 3 11.1523 3C6.65635 3 3 6.6316 3 11.0944C3 15.5572 6.65635 19.1845 11.1523 19.1845C12.9826 19.1845 14.756 18.573 16.1896 17.4524L17.3273 18.7275C16.7552 19.8568 16.9656 21.2581 17.8841 22.1698L23.8903 28.1318C24.4537 28.691 25.2034 29 26.0056 29C26.3958 29 26.7773 28.926 27.1324 28.7824C27.5028 28.6366 27.836 28.4169 28.1254 28.1318C28.6887 27.5682 29 26.8219 29 26.0277C29 25.2335 28.6887 24.4893 28.1232 23.9279ZM11.1523 4.95832C14.5587 4.95832 17.3317 7.71085 17.3317 11.0944C17.3317 14.4779 14.5587 17.2261 11.1523 17.2261C7.74581 17.2261 4.97285 14.4758 4.97285 11.0944C4.97285 7.71303 7.74581 4.95832 11.1523 4.95832ZM27.0271 26.0277C27.0271 26.2997 26.9219 26.5543 26.729 26.7458C26.5361 26.9372 26.2797 27.0417 26.0056 27.0417C25.7316 27.0417 25.4752 26.9372 25.2823 26.7458L19.2782 20.7837C19.0875 20.5923 18.9801 20.3399 18.9801 20.0679C18.9801 19.7959 19.0853 19.5413 19.2782 19.352C19.4711 19.1605 19.7298 19.0539 20.0016 19.0539C20.2734 19.0539 20.5321 19.1605 20.725 19.3498L26.729 25.3118C26.9219 25.5033 27.0271 25.7579 27.0271 26.0277Z" fill="#144FE2"/>
<path d="M8 9H12" stroke="#144FE2" stroke-width="0.5" stroke-linecap="round" stroke-linejoin="round"/>
<path d="M9 11L15 11" stroke="#144FE2" stroke-width="0.5" stroke-linecap="round" stroke-linejoin="round"/>
<path d="M7 13L13 13" stroke="#144FE2" stroke-width="0.5" stroke-linecap="round" stroke-linejoin="round"/>
</svg>
