<svg width="25" height="25" viewBox="0 0 25 25" fill="none" xmlns="http://www.w3.org/2000/svg">
<g clip-path="url(#clip0_8_240)">
<path d="M12.5 0.5C14.1203 0.5 15.6919 0.817187 17.1709 1.44281C18.5997 2.04719 19.8831 2.9125 20.9853 4.01469C22.0875 5.11688 22.9528 6.40031 23.5572 7.82906C24.1828 9.30813 24.5 10.8797 24.5 12.4997C24.5 14.255 24.1297 15.9466 23.3997 17.5269C23.0494 18.2847 22.6175 19.0094 22.1159 19.68C21.6181 20.3456 21.0491 20.9619 20.4244 21.5112C19.7728 22.0847 19.0588 22.5878 18.3013 23.0069C17.5325 23.4322 16.7159 23.7728 15.8741 24.0187C14.7841 24.3378 13.6487 24.4997 12.5 24.4997C11.2572 24.4997 10.0322 24.3106 8.85938 23.9375C7.56281 23.525 6.35344 22.8981 5.265 22.0741C3.81687 20.9778 2.6175 19.5453 1.79688 17.9312C1.37781 17.1072 1.05531 16.2347 0.837812 15.3375C0.614062 14.4141 0.500313 13.4591 0.500313 12.4997C0.500313 10.8794 0.8175 9.30813 1.44313 7.82906C2.0475 6.40031 2.91281 5.11688 4.015 4.01469C5.11719 2.9125 6.40062 2.04719 7.82937 1.44281C9.30844 0.817187 10.88 0.5 12.5 0.5ZM12.5 0C5.59656 0 0 5.59656 0 12.5C0 16.5731 1.94813 20.1909 4.96313 22.4731C6.07969 23.3184 7.34312 23.9803 8.70781 24.4144C9.90375 24.7947 11.1778 25 12.5 25C13.7203 25 14.8997 24.8253 16.0144 24.4991C17.7903 23.98 19.4022 23.0775 20.7547 21.8869C23.3578 19.5963 25 16.24 25 12.5C25 5.59656 19.4037 0 12.5 0Z" fill="#144FE2"/>
<path d="M10.2383 11.5811C10.2383 11.5811 9.81861 11.1417 9.29393 11.1417C8.76924 11.1417 8.31955 11.7714 8.31955 11.7714L8.81424 11.4417C8.81424 11.4417 8.76924 11.8164 9.28393 11.8164C9.79861 11.8164 9.70361 11.3167 9.70361 11.3167C9.89861 11.3567 10.0283 11.5214 10.0283 11.5214L9.8283 11.7264L10.2383 11.5814V11.5811ZM10.2383 11.5811C10.2383 11.5811 9.81861 11.1417 9.29393 11.1417C8.76924 11.1417 8.31955 11.7714 8.31955 11.7714L8.81424 11.4417C8.81424 11.4417 8.76924 11.8164 9.28393 11.8164C9.79861 11.8164 9.70361 11.3167 9.70361 11.3167C9.89861 11.3567 10.0283 11.5214 10.0283 11.5214L9.8283 11.7264L10.2383 11.5814V11.5811ZM10.2383 11.5811C10.2383 11.5811 9.81861 11.1417 9.29393 11.1417C8.76924 11.1417 8.31955 11.7714 8.31955 11.7714L8.81424 11.4417C8.81424 11.4417 8.76924 11.8164 9.28393 11.8164C9.79861 11.8164 9.70361 11.3167 9.70361 11.3167C9.89861 11.3567 10.0283 11.5214 10.0283 11.5214L9.8283 11.7264L10.2383 11.5814V11.5811ZM10.2383 11.5811C10.2383 11.5811 9.81861 11.1417 9.29393 11.1417C8.76924 11.1417 8.31955 11.7714 8.31955 11.7714L8.81424 11.4417C8.81424 11.4417 8.76924 11.8164 9.28393 11.8164C9.79861 11.8164 9.70361 11.3167 9.70361 11.3167C9.89861 11.3567 10.0283 11.5214 10.0283 11.5214L9.8283 11.7264L10.2383 11.5814V11.5811ZM9.34924 21.9204C9.36736 21.8861 9.38424 21.8526 9.39955 21.8201C9.3808 21.8542 9.36424 21.8876 9.34924 21.9204ZM10.2383 11.5811C10.2383 11.5811 9.81861 11.1417 9.29393 11.1417C8.76924 11.1417 8.31955 11.7714 8.31955 11.7714L8.81424 11.4417C8.81424 11.4417 8.76924 11.8164 9.28393 11.8164C9.79861 11.8164 9.70361 11.3167 9.70361 11.3167C9.89861 11.3567 10.0283 11.5214 10.0283 11.5214L9.8283 11.7264L10.2383 11.5814V11.5811ZM10.2383 11.5811C10.2383 11.5811 9.81861 11.1417 9.29393 11.1417C8.76924 11.1417 8.31955 11.7714 8.31955 11.7714L8.81424 11.4417C8.81424 11.4417 8.76924 11.8164 9.28393 11.8164C9.79861 11.8164 9.70361 11.3167 9.70361 11.3167C9.89861 11.3567 10.0283 11.5214 10.0283 11.5214L9.8283 11.7264L10.2383 11.5814V11.5811ZM20.5695 21.6189C20.5105 21.5007 20.4767 21.3523 20.4767 21.1598C20.4767 19.4807 19.7374 19.4307 19.6924 18.6764C19.6474 17.9217 19.8474 18.4514 19.7974 17.362C19.7474 16.2726 19.173 15.6979 19.173 15.4082C19.173 15.1186 19.483 15.1532 19.4527 14.2539C19.4227 13.3545 19.0505 12.6498 19.0505 12.1601C19.0505 10.3001 18.3908 10.0842 18.3458 9.25199C18.2364 7.22668 17.0567 5.89418 16.1274 5.1073C15.198 4.32043 14.3886 4.12543 13.9064 4.12543C13.2396 4.12543 12.9821 3.81543 12.4574 3.81543C11.8277 3.81543 10.5836 4.3248 10.2286 4.6948C10.2286 4.6948 9.22424 4.7548 7.86768 6.11137C6.51111 7.46793 6.39111 9.63387 6.35393 9.95637C6.34236 10.0567 6.38174 10.3576 6.44111 10.7239L6.28174 10.7157L6.33143 11.1854L6.51893 11.1757C6.64736 11.8973 6.80361 12.6617 6.80361 12.6617C6.80361 12.6617 6.82955 12.6679 6.86393 12.697C7.02643 12.6586 7.20799 12.7142 7.20799 12.7142C7.20799 12.7142 7.18736 12.6551 7.15674 12.5514C7.25736 12.7486 7.37799 12.9245 7.52049 13.0439C7.87924 13.3436 8.10518 13.3779 8.48455 13.3639C9.14924 13.3389 10.8083 13.5486 10.7883 10.7004C10.7983 10.4054 11.258 10.4354 11.258 10.4354C11.258 10.4354 11.6777 10.3654 11.7027 10.8351C11.7277 11.3048 12.1671 12.8736 13.6461 12.8286C15.1255 12.7836 15.7399 12.4839 15.9249 10.8398C15.9711 10.4276 15.9449 10.3251 15.9449 10.3251L16.2196 10.0704L16.7896 10.6679L16.8017 10.8323L17.1989 11.6492C17.1989 11.6492 17.2814 12.5636 17.0717 13.0807C17.0717 13.0807 17.2024 13.0726 17.4489 12.1589C17.6114 11.5567 18.1583 11.477 18.3683 11.477C18.5783 11.477 18.938 11.6117 18.938 12.2039C18.938 12.7961 18.638 13.3582 18.2558 14.0623C17.8736 14.767 17.4989 15.0217 17.2067 15.0217C16.9145 15.0217 16.7642 14.8645 16.7642 14.8645C16.7642 14.8645 16.6105 15.5401 16.1442 16.3101L16.2996 17.0304C16.2996 17.0304 16.3302 17.0101 16.4999 17.9314C15.6583 19.1864 15.9514 21.217 15.9514 21.217C15.777 21.537 15.6399 21.827 15.6399 22.1123C15.6399 22.917 16.0636 23.2851 15.8889 24.2626C17.6552 23.7467 19.2505 22.8298 20.5695 21.617V21.6189ZM10.578 10.9964C10.4486 12.9045 9.65861 13.1151 8.49955 13.1151C7.34049 13.1151 6.93049 11.5861 6.99049 11.0267C7.05486 10.4261 8.05986 10.2473 8.05986 10.2473C7.71986 10.617 7.71986 11.0567 7.71986 11.0567C7.98986 10.497 8.64955 10.257 8.64955 10.257L9.46893 10.247L9.66893 10.127C10.1586 10.127 10.6183 10.4067 10.5783 10.9964H10.578ZM15.6249 10.307L15.5449 11.5161C15.5449 11.5161 15.5049 12.5854 13.5964 12.5854C12.0374 12.5854 11.7877 10.5367 11.7877 10.5367C11.7877 10.217 12.2774 9.61762 13.9961 9.61762C15.7149 9.61762 15.6252 10.307 15.6252 10.307H15.6249ZM16.2345 9.61762L15.0605 9.47762L14.4508 8.90293C14.4508 8.90293 12.7117 9.11293 11.9674 9.7773L11.9224 9.9773L11.7624 10.0823C11.7624 10.0823 11.1027 10.0573 10.693 10.2373L10.3983 10.1223L10.2783 9.88762C10.2783 9.88762 9.32393 9.63793 8.78424 9.63793C8.24455 9.63793 8.05955 9.67793 8.05955 9.67793L7.77986 10.1326C7.77986 10.1326 7.3033 10.3151 6.90643 10.4998C6.90924 10.4739 6.91205 10.4482 6.91518 10.4226C6.91518 10.4226 7.11736 7.69949 8.58143 6.49262C9.34861 5.86043 10.2705 5.86293 10.303 5.71574C10.3549 5.47949 10.213 5.04105 10.213 5.04105L10.5877 5.60574C10.5877 5.60574 11.7942 5.43824 12.2364 5.43824C12.6786 5.43824 13.3833 5.49824 13.9005 5.97043C14.4177 6.44262 14.7699 7.25949 14.9346 7.37949C15.0996 7.49949 15.3617 7.58949 15.5192 7.81418C15.6767 8.03918 15.9989 8.69137 16.0964 8.73637C16.1911 8.7798 16.7617 8.98699 16.7508 10.0476L16.2342 9.61824L16.2345 9.61762ZM9.29393 11.1417C8.76924 11.1417 8.31955 11.7714 8.31955 11.7714L8.81424 11.4417C8.81424 11.4417 8.76924 11.8164 9.28393 11.8164C9.79861 11.8164 9.70361 11.3167 9.70361 11.3167C9.89861 11.3567 10.0283 11.5214 10.0283 11.5214L9.8283 11.7264L10.2383 11.5814C10.2383 11.5814 9.81861 11.142 9.29393 11.142V11.1417ZM10.2383 11.5811C10.2383 11.5811 9.81861 11.1417 9.29393 11.1417C8.76924 11.1417 8.31955 11.7714 8.31955 11.7714L8.81424 11.4417C8.81424 11.4417 8.76924 11.8164 9.28393 11.8164C9.79861 11.8164 9.70361 11.3167 9.70361 11.3167C9.89861 11.3567 10.0283 11.5214 10.0283 11.5214L9.8283 11.7264L10.2383 11.5814V11.5811ZM10.2383 11.5811C10.2383 11.5811 9.81861 11.1417 9.29393 11.1417C8.76924 11.1417 8.31955 11.7714 8.31955 11.7714L8.81424 11.4417C8.81424 11.4417 8.76924 11.8164 9.28393 11.8164C9.79861 11.8164 9.70361 11.3167 9.70361 11.3167C9.89861 11.3567 10.0283 11.5214 10.0283 11.5214L9.8283 11.7264L10.2383 11.5814V11.5811ZM10.2383 11.5811C10.2383 11.5811 9.81861 11.1417 9.29393 11.1417C8.76924 11.1417 8.31955 11.7714 8.31955 11.7714L8.81424 11.4417C8.81424 11.4417 8.76924 11.8164 9.28393 11.8164C9.79861 11.8164 9.70361 11.3167 9.70361 11.3167C9.89861 11.3567 10.0283 11.5214 10.0283 11.5214L9.8283 11.7264L10.2383 11.5814V11.5811ZM12.7849 15.1754C12.4692 14.8054 11.4214 14.8342 11.4214 14.8342C11.4214 14.8342 11.2877 14.9057 11.1546 14.9317C10.8724 14.9864 10.7827 14.9779 10.7827 14.9779C10.6324 15.0829 10.2124 15.4704 10.2014 15.6495C10.1905 15.8289 10.4402 15.8679 10.4402 15.8679L10.6086 15.8348L10.6864 15.7807L10.8705 15.7548L11.2002 15.6623L11.458 15.6464C11.458 15.6464 11.6374 15.5795 11.7321 15.5757C11.8267 15.5714 12.2146 15.5223 12.2146 15.5223L12.393 15.4742L12.7389 15.3782L12.7799 15.327C12.8196 15.2776 12.8233 15.2201 12.7852 15.1754H12.7849ZM12.7617 15.4564C12.7533 15.4426 12.7302 15.4367 12.708 15.4429L12.3999 15.5282L12.3021 15.5879C12.3021 15.5879 11.8339 15.6257 11.7389 15.6298C11.6439 15.6339 11.4821 15.7157 11.4821 15.7157L11.2067 15.7167L10.8771 15.8092L10.693 15.8351L10.6152 15.8895L10.4467 15.9226L10.3683 16.0307C10.6083 16.6686 11.6877 16.3892 11.6877 16.3892C11.6877 16.3892 12.2511 16.3042 12.6192 16.0236C12.9264 15.7895 12.8089 15.5348 12.7614 15.4567L12.7617 15.4564ZM10.2383 11.5811C10.2383 11.5811 9.81861 11.1417 9.29393 11.1417C8.76924 11.1417 8.31955 11.7714 8.31955 11.7714L8.81424 11.4417C8.81424 11.4417 8.76924 11.8164 9.28393 11.8164C9.79861 11.8164 9.70361 11.3167 9.70361 11.3167C9.89861 11.3567 10.0283 11.5214 10.0283 11.5214L9.8283 11.7264L10.2383 11.5814V11.5811ZM10.2383 11.5811C10.2383 11.5811 9.81861 11.1417 9.29393 11.1417C8.76924 11.1417 8.31955 11.7714 8.31955 11.7714L8.81424 11.4417C8.81424 11.4417 8.76924 11.8164 9.28393 11.8164C9.79861 11.8164 9.70361 11.3167 9.70361 11.3167C9.89861 11.3567 10.0283 11.5214 10.0283 11.5214L9.8283 11.7264L10.2383 11.5814V11.5811ZM10.2383 11.5811C10.2383 11.5811 9.81861 11.1417 9.29393 11.1417C8.76924 11.1417 8.31955 11.7714 8.31955 11.7714L8.81424 11.4417C8.81424 11.4417 8.76924 11.8164 9.28393 11.8164C9.79861 11.8164 9.70361 11.3167 9.70361 11.3167C9.89861 11.3567 10.0283 11.5214 10.0283 11.5214L9.8283 11.7264L10.2383 11.5814V11.5811Z" fill="#144FE2"/>
<path d="M9.3993 21.82C9.38055 21.854 9.36398 21.8875 9.34898 21.9203C9.34898 21.9203 9.34898 21.9209 9.34898 21.9212C9.1468 22.3096 8.8043 22.8112 8.8043 23.2834C8.8043 23.6903 8.91305 23.9009 8.9793 24.1837C7.57836 23.7384 6.29055 23.039 5.16992 22.1396C5.29961 21.924 5.47617 21.6506 5.71617 21.305L5.80617 20.0009C5.80617 20.0009 5.73148 19.2962 6.18086 18.8165C6.18086 18.8165 5.92617 18.0521 6.51055 16.8978C6.51055 16.8978 6.48055 15.7737 6.63023 15.414C6.76336 15.0946 6.82961 14.0631 6.84273 13.835C6.94555 14.0484 7.04273 14.1996 7.04273 14.1996C7.08773 14.3121 7.37992 14.8593 7.37992 14.8593C7.56742 15.8262 8.17461 15.9912 8.17461 15.9912C8.3793 16.7556 9.01648 17.4384 9.72305 17.9665L9.68836 18.0375C9.68836 18.0375 9.71023 18.5118 9.72742 18.9575C9.72742 18.9575 10.0659 20.6062 9.3993 21.8206V21.82Z" fill="#144FE2"/>
<path d="M9.39943 21.8203C9.38412 21.8528 9.36725 21.8863 9.34912 21.9206C9.36412 21.8875 9.38068 21.8544 9.39943 21.8203Z" fill="#144FE2"/>
<path d="M14.2829 10.9025C14.2829 10.9025 14.3501 11.3821 13.8329 11.3821C13.3157 11.3821 13.3235 10.9475 13.3235 10.9475L13.0085 11.1121L13.136 11.2471L12.791 11.1646C12.791 11.1646 13.2932 10.6475 13.7354 10.6475C14.1251 10.6475 14.4623 10.865 14.7548 11.1271L14.2829 10.9025Z" fill="#144FE2"/>
<path d="M12.3339 21.7743C12.3602 21.7478 12.3955 21.7318 12.4389 21.7256V22.035C12.388 22.0143 12.3514 21.9915 12.3283 21.9678C12.3055 21.9437 12.2939 21.9131 12.2939 21.8753C12.2939 21.8343 12.3071 21.8009 12.3336 21.7743H12.3339Z" fill="#144FE2"/>
<path d="M12.6481 22.2774C12.6724 22.3018 12.6846 22.3343 12.6846 22.3752C12.6846 22.4161 12.6715 22.4508 12.6449 22.4793C12.6187 22.5074 12.5815 22.5252 12.5337 22.5324V22.208C12.5856 22.2299 12.6237 22.253 12.6481 22.2774Z" fill="#144FE2"/>
<path d="M12.7427 21.2027C12.6545 21.1762 12.5614 21.1621 12.4648 21.1621C12.3683 21.1621 12.2833 21.1749 12.1989 21.199C11.7933 21.3146 11.4961 21.688 11.4961 22.1305C11.4961 22.6652 11.9298 23.099 12.4648 23.099C12.9998 23.099 13.4333 22.6652 13.4333 22.1305C13.4333 21.6921 13.142 21.3218 12.7427 21.2027ZM12.7427 22.5762C12.6889 22.629 12.6192 22.6602 12.5333 22.6702V22.8034H12.4389V22.6718C12.3573 22.6659 12.2877 22.6434 12.2305 22.6046C12.1733 22.5659 12.1317 22.5137 12.1055 22.4477L12.2252 22.379C12.2589 22.4715 12.3302 22.5237 12.4386 22.5359V22.174C12.3939 22.1584 12.3577 22.1434 12.3302 22.1299C12.3027 22.1165 12.2742 22.0984 12.2442 22.0752C12.2145 22.0524 12.1923 22.024 12.178 21.9909C12.1633 21.9574 12.1561 21.9187 12.1561 21.8749C12.1561 21.794 12.183 21.7284 12.2367 21.6774C12.2908 21.6268 12.358 21.5974 12.4386 21.5893V21.4577H12.533V21.5909C12.593 21.599 12.6461 21.6196 12.693 21.6537C12.7398 21.6874 12.7761 21.7334 12.802 21.7912L12.6855 21.8568C12.6564 21.784 12.6055 21.7409 12.533 21.7268V22.0705C12.5789 22.0877 12.6152 22.1024 12.642 22.1152C12.6689 22.1284 12.6983 22.1465 12.7302 22.1699C12.762 22.1934 12.7855 22.2221 12.8005 22.2559C12.8155 22.2899 12.823 22.329 12.823 22.374C12.823 22.4555 12.7961 22.5227 12.7423 22.5759L12.7427 22.5762Z" fill="#144FE2"/>
<path d="M12.6487 21.1074V21.1493H12.2925V21.1074H12.6487ZM12.7425 21.0137H12.1987V21.243H12.7425V21.0137Z" fill="#144FE2"/>
<path d="M12.4526 21.2877L12.3936 21.262C12.3701 21.2517 11.807 21.0058 10.997 20.4339C10.252 19.908 9.15045 18.9952 8.13232 17.6327L8.36701 17.4573C10.0961 19.7717 12.0908 20.7939 12.4526 20.9664C13.9608 20.2742 15.0308 19.2139 15.6661 18.4414C16.3658 17.5902 16.7039 16.8939 16.7073 16.8867L16.9714 17.0133C16.9573 17.0427 16.6183 17.7427 15.8983 18.6198C15.2342 19.4292 14.1076 20.5445 12.5123 21.2608L12.4536 21.2873L12.4526 21.2877Z" fill="#144FE2"/>
</g>
<defs>
<clipPath id="clip0_8_240">
<rect width="25" height="25" fill="white"/>
</clipPath>
</defs>
</svg>
