<svg width="32" height="32" viewBox="0 0 32 32" fill="none" xmlns="http://www.w3.org/2000/svg">
<path d="M14.4027 23.6937C14.5258 23.6939 14.6476 23.7183 14.7613 23.7656C14.8749 23.8129 14.9782 23.8821 15.0651 23.9692C15.152 24.0564 15.2209 24.1598 15.2678 24.2736C15.3148 24.3874 15.3388 24.5093 15.3387 24.6324C15.3385 24.7555 15.3141 24.8774 15.2668 24.991C15.2195 25.1047 15.1504 25.2079 15.0632 25.2948C14.976 25.3817 14.8726 25.4506 14.7588 25.4976C14.645 25.5445 14.5231 25.5686 14.4 25.5684C14.1514 25.5681 13.9131 25.469 13.7376 25.2929C13.5621 25.1169 13.4636 24.8783 13.464 24.6297C13.4644 24.3811 13.5634 24.1429 13.7395 23.9673C13.9155 23.7918 14.1541 23.6934 14.4027 23.6937ZM29.1013 17.8977C28.9782 17.8977 28.8564 17.8733 28.7427 17.8261C28.629 17.779 28.5257 17.7098 28.4387 17.6227C28.3518 17.5356 28.2828 17.4323 28.2358 17.3185C28.1887 17.2047 28.1646 17.0828 28.1647 16.9597C28.1648 16.8367 28.1891 16.7148 28.2363 16.6011C28.2835 16.4874 28.3526 16.3841 28.4397 16.2971C28.5268 16.2102 28.6302 16.1412 28.7439 16.0942C28.8577 16.0471 28.9796 16.023 29.1027 16.0231C29.3513 16.0233 29.5896 16.1222 29.7653 16.2981C29.9409 16.474 30.0395 16.7125 30.0393 16.9611C30.0392 17.2097 29.9402 17.448 29.7643 17.6237C29.5884 17.7993 29.3499 17.8979 29.1013 17.8977ZM29.1013 14.0631C28.3328 14.0638 27.5959 14.3694 27.0524 14.9129C26.509 15.4563 26.2034 16.1932 26.2027 16.9617C26.2027 17.2724 26.2547 17.5817 26.356 17.8831L16.7813 22.9804C16.5158 22.5949 16.1606 22.2798 15.7462 22.0621C15.3318 21.8445 14.8707 21.7309 14.4027 21.7311C13.2973 21.7311 12.2907 22.3644 11.8027 23.3524L3.20134 18.8164C2.292 18.3391 1.612 16.8431 1.684 15.4804C1.72134 14.7697 1.96667 14.2177 2.34134 14.0044C2.57867 13.8711 2.864 13.8817 3.168 14.0404L3.224 14.0711C5.504 15.2711 12.9627 19.2004 13.2773 19.3457C13.7613 19.5711 14.0307 19.6617 14.8573 19.2697L30.276 11.2511C30.5027 11.1657 30.7667 10.9484 30.7667 10.6191C30.7667 10.1631 30.2947 9.98308 30.2933 9.98308C29.416 9.56308 28.068 8.93241 26.7533 8.31641C23.9427 7.00041 20.7573 5.50975 19.3587 4.77641C18.1507 4.14441 17.1787 4.67775 17.0053 4.78441L16.6693 4.95108C10.3733 8.06441 1.94667 12.2377 1.46667 12.5297C0.609336 13.0524 0.0773355 14.0937 0.00800219 15.3857C-0.0986645 17.4351 0.945335 19.5724 2.44 20.3551L11.536 25.0457C11.6362 25.7348 11.981 26.3648 12.5073 26.8206C13.0336 27.2764 13.7064 27.5277 14.4027 27.5284C15.1631 27.5271 15.8927 27.2275 16.4345 26.6939C16.9763 26.1603 17.2871 25.4354 17.3 24.6751L27.3187 19.2444C27.8253 19.6417 28.456 19.8591 29.1013 19.8591C29.8699 19.8584 30.6068 19.5528 31.1502 19.0093C31.6937 18.4658 31.9993 17.729 32 16.9604C31.9993 16.1919 31.6937 15.455 31.1502 14.9115C30.6068 14.3681 29.8699 14.0625 29.1013 14.0617" fill="#144FE2"/>
</svg>
