<svg width="3914" height="1620" viewBox="0 0 3914 1620" fill="none" xmlns="http://www.w3.org/2000/svg">
<g clip-path="url(#clip0_18_166)">
<path d="M977.577 703.473L944.658 687.8C944.658 687.8 949.355 721.263 913.279 721.263C877.203 721.263 877.742 690.938 877.742 690.938L855.777 702.433L864.67 711.848L840.607 706.092C840.607 706.092 875.625 670.01 906.484 670.01C933.666 670.01 957.19 685.182 977.577 703.473Z" fill="#FDB517"/>
<path d="M662.53 735.191C662.53 735.191 633.249 704.532 596.653 704.532C560.058 704.532 528.698 748.45 528.698 748.45L563.195 725.442C563.195 725.442 560.058 751.588 595.948 751.588C631.838 751.588 625.228 716.732 625.228 716.732C638.819 719.518 647.88 731.013 647.88 731.013L633.936 745.312L662.53 735.191ZM662.53 735.191C662.53 735.191 633.249 704.532 596.653 704.532C560.058 704.532 528.698 748.45 528.698 748.45L563.195 725.442C563.195 725.442 560.058 751.588 595.948 751.588C631.838 751.588 625.228 716.732 625.228 716.732C638.819 719.518 647.88 731.013 647.88 731.013L633.936 745.312L662.53 735.191ZM662.53 735.191C662.53 735.191 633.249 704.532 596.653 704.532C560.058 704.532 528.698 748.45 528.698 748.45L563.195 725.442C563.195 725.442 560.058 751.588 595.948 751.588C631.838 751.588 625.228 716.732 625.228 716.732C638.819 719.518 647.88 731.013 647.88 731.013L633.936 745.312L662.53 735.191ZM662.53 735.191C662.53 735.191 633.249 704.532 596.653 704.532C560.058 704.532 528.698 748.45 528.698 748.45L563.195 725.442C563.195 725.442 560.058 751.588 595.948 751.588C631.838 751.588 625.228 716.732 625.228 716.732C638.819 719.518 647.88 731.013 647.88 731.013L633.936 745.312L662.53 735.191ZM1383.12 1435.43C1379 1427.19 1376.64 1416.84 1376.64 1403.42C1376.64 1286.3 1325.06 1282.8 1321.92 1230.18C1318.78 1177.53 1332.73 1214.49 1329.24 1138.5C1325.75 1062.51 1285.68 1022.41 1285.68 1002.21C1285.68 982.006 1307.29 984.42 1305.19 921.69C1303.1 858.942 1277.14 809.787 1277.14 775.637C1277.14 645.887 1231.13 630.808 1227.99 572.758C1220.36 431.477 1138.07 338.515 1073.25 283.622C1008.43 228.728 951.972 215.135 918.347 215.135C871.837 215.135 853.864 193.52 817.268 193.52C773.357 193.52 686.574 229.063 661.824 254.857C661.824 254.857 591.77 259.053 497.152 353.687C405.672 445.182 394.161 599.425 391.561 621.913C390.744 628.914 393.492 649.898 397.633 675.451L386.511 674.894L389.983 707.67L403.054 707.001C412.022 757.345 422.921 810.66 422.921 810.66C422.921 810.66 424.741 811.105 427.136 813.13C438.48 810.455 451.143 814.318 451.143 814.318C451.143 814.318 449.695 810.195 447.56 802.972C454.578 816.732 462.989 829.007 472.941 837.326C497.969 858.236 513.733 860.632 540.191 859.648C586.553 857.902 702.263 872.535 700.871 673.854C701.558 653.278 733.623 655.377 733.623 655.377C733.623 655.377 762.903 650.493 764.649 683.269C766.394 716.027 797.048 825.479 900.207 822.34C1003.38 819.202 1046.24 798.292 1059.14 683.603C1062.37 654.857 1060.53 647.707 1060.53 647.707L1079.7 629.936L1119.45 671.625L1120.3 683.083L1148 740.075C1148 740.075 1153.76 803.863 1139.13 839.945C1139.13 839.945 1148.25 839.388 1165.44 775.637C1176.76 733.631 1214.92 728.06 1229.57 728.06C1244.22 728.06 1269.3 737.456 1269.3 778.775C1269.3 820.093 1248.38 859.295 1221.72 908.431C1195.05 957.586 1168.93 975.358 1148.54 975.358C1128.16 975.358 1117.68 964.383 1117.68 964.383C1117.68 964.383 1106.97 1011.51 1074.44 1065.24L1085.27 1115.49C1085.27 1115.49 1087.4 1114.08 1099.25 1178.33L802.971 1337.18L626.918 1249.73C625.711 1218.64 624.188 1185.55 624.188 1185.55L626.602 1180.61C577.325 1143.79 532.875 1096.16 518.597 1042.82C518.597 1042.82 476.246 1031.31 463.174 963.863C463.174 963.863 442.788 925.702 439.65 917.846C439.65 917.846 432.873 907.299 425.706 892.405C424.796 908.32 420.173 980.279 410.889 1002.56C400.436 1027.65 402.534 1106.07 402.534 1106.07C361.761 1186.59 379.53 1239.93 379.53 1239.93C348.17 1273.39 353.387 1322.54 353.387 1322.54L347.111 1413.52C330.364 1437.64 318.054 1456.71 309.012 1471.76C387.161 1534.5 476.988 1583.29 574.707 1614.36C570.102 1594.63 562.509 1579.93 562.509 1551.55C562.509 1515.67 590.823 1477.38 604.025 1449.47L708.873 1498.22L809.247 1389.47L892.892 1506.59L1061 1407.54C1048.84 1429.86 1039.27 1450.08 1039.27 1469.99C1039.27 1526.13 1068.83 1551.81 1056.65 1620C1179.85 1584.01 1291.12 1520.06 1383.12 1435.43ZM686.221 694.411C677.198 827.521 622.09 842.21 541.249 842.21C460.408 842.21 431.815 735.544 435.992 696.509C440.485 654.615 510.576 642.136 510.576 642.136C486.866 667.93 486.866 698.608 486.866 698.608C505.693 659.555 551.703 642.823 551.703 642.823L608.852 642.136L622.796 633.761C656.959 633.761 689.006 653.278 686.221 694.411ZM1038.24 646.314L1032.65 730.66C1032.65 730.66 1029.86 805.256 896.735 805.256C787.988 805.256 770.572 662.34 770.572 662.34C770.572 640.038 804.717 598.218 924.604 598.218C1044.49 598.218 1038.24 646.314 1038.24 646.314ZM998.854 588.45L956.336 548.357C956.336 548.357 835.037 563.009 783.123 609.36L779.985 623.306L768.826 630.623C768.826 630.623 722.817 628.877 694.242 641.43L673.688 633.408L665.315 617.029C665.315 617.029 598.752 599.611 561.116 599.611C523.48 599.611 510.576 602.396 510.576 602.396L491.062 634.114C491.062 634.114 457.827 646.834 430.144 659.722C430.329 657.921 430.533 656.119 430.756 654.337C430.756 654.337 444.867 464.364 546.986 380.186C600.497 336.082 664.795 336.249 667.06 325.98C670.681 309.508 660.784 278.923 660.784 278.923L686.927 318.311C686.927 318.311 771.092 306.63 801.931 306.63C832.771 306.63 881.919 310.808 917.995 343.752C954.07 376.695 978.635 433.687 990.128 442.043C1001.64 450.418 1019.93 456.695 1030.9 472.368C1041.89 488.06 1064.36 533.557 1071.15 536.695C1077.76 539.722 1117.55 554.169 1116.79 628.171L1080.75 598.218L998.854 588.45ZM596.653 704.532C560.058 704.532 528.698 748.45 528.698 748.45L563.195 725.442C563.195 725.442 560.058 751.588 595.948 751.588C631.838 751.588 625.228 716.732 625.228 716.732C638.819 719.518 647.88 731.013 647.88 731.013L633.936 745.312L662.53 735.191C662.53 735.191 633.249 704.532 596.653 704.532ZM662.53 735.191C662.53 735.191 633.249 704.532 596.653 704.532C560.058 704.532 528.698 748.45 528.698 748.45L563.195 725.442C563.195 725.442 560.058 751.588 595.948 751.588C631.838 751.588 625.228 716.732 625.228 716.732C638.819 719.518 647.88 731.013 647.88 731.013L633.936 745.312L662.53 735.191ZM840.161 985.943C818.141 960.131 745.06 962.136 745.06 962.136C745.06 962.136 735.74 967.131 726.438 968.933C706.756 972.758 700.499 972.164 700.499 972.164C690.009 979.481 660.729 1006.52 659.967 1019.02C659.206 1031.53 676.622 1034.26 676.622 1034.26L688.375 1031.94L693.797 1028.17L706.626 1026.35L729.613 1019.89L747.586 1018.77C747.586 1018.77 760.1 1014.11 766.71 1013.85C773.32 1013.56 800.372 1010.12 800.372 1010.12L812.812 1006.76L836.93 1000.07L839.79 996.509C842.556 993.074 842.816 989.044 840.161 985.943ZM838.546 1005.53C837.952 1004.57 836.336 1004.16 834.795 1004.59L813.313 1010.55L806.48 1014.71C806.48 1014.71 773.821 1017.34 767.211 1017.62C760.582 1017.9 749.294 1023.62 749.294 1023.62L730.095 1023.68L707.109 1030.12L694.279 1031.94L688.858 1035.73L677.105 1038.03L671.627 1045.57C688.375 1090.07 763.646 1070.59 763.646 1070.59C763.646 1070.59 802.953 1064.66 828.631 1045.09C850.057 1028.77 841.851 1010.99 838.546 1005.53ZM662.53 735.191C662.53 735.191 633.249 704.532 596.653 704.532C560.058 704.532 528.698 748.45 528.698 748.45L563.195 725.442C563.195 725.442 560.058 751.588 595.948 751.588C631.838 751.588 625.228 716.732 625.228 716.732C638.819 719.518 647.88 731.013 647.88 731.013L633.936 745.312L662.53 735.191ZM662.53 735.191C662.53 735.191 633.249 704.532 596.653 704.532C560.058 704.532 528.698 748.45 528.698 748.45L563.195 725.442C563.195 725.442 560.058 751.588 595.948 751.588C631.838 751.588 625.228 716.732 625.228 716.732C638.819 719.518 647.88 731.013 647.88 731.013L633.936 745.312L662.53 735.191ZM662.53 735.191C662.53 735.191 633.249 704.532 596.653 704.532C560.058 704.532 528.698 748.45 528.698 748.45L563.195 725.442C563.195 725.442 560.058 751.588 595.948 751.588C631.838 751.588 625.228 716.732 625.228 716.732C638.819 719.518 647.88 731.013 647.88 731.013L633.936 745.312L662.53 735.191Z" fill="#FDB517"/>
<path d="M1582.94 1145.03C1616.49 1056.29 1634.85 960.074 1634.85 859.591C1634.85 413.668 1273.44 52.2191 827.611 52.2191C381.777 52.2191 20.3867 413.668 20.3867 859.591C20.3867 1019.74 67.0087 1169.03 147.441 1294.56C55.9427 1163.23 1.70817 1004.03 0.0371342 832.219C0.0185671 831.495 0.0185671 830.789 0.0185671 830.065C0 829.341 0 828.617 0 827.911C0 827.409 0 826.89 0.0185671 826.388C0 825.608 0 824.81 0 824.03C0 368.951 368.854 0 823.897 0C1129.62 0 1396.43 166.555 1538.64 413.872C1538.77 414.113 1538.92 414.373 1539.07 414.633C1608.23 535.246 1647.78 675.023 1647.78 824.03C1647.78 937.902 1624.7 1046.39 1582.94 1145.03Z" fill="#FDB517"/>
<path d="M603.282 1376.92C603.282 1402.02 617.913 1410.38 608.499 1438.63C607.367 1442.02 605.844 1445.64 604.025 1449.47C590.823 1477.38 562.509 1515.67 562.509 1551.55C562.509 1579.93 570.103 1594.63 574.707 1614.35C476.988 1583.29 387.161 1534.5 309.012 1471.75C318.054 1456.71 330.364 1437.64 347.111 1413.52L353.387 1322.54C353.387 1322.54 348.17 1273.39 379.53 1239.93C379.53 1239.93 361.761 1186.59 402.534 1106.07C402.534 1106.07 400.436 1027.65 410.889 1002.56C420.173 980.278 424.796 908.319 425.706 892.404C432.873 907.298 439.65 917.845 439.65 917.845C442.788 925.701 463.175 963.862 463.175 963.862C476.246 1031.31 518.597 1042.82 518.597 1042.82C532.875 1096.16 577.325 1143.79 626.602 1180.61L624.188 1185.55C624.188 1185.55 625.711 1218.64 626.918 1249.73C627.716 1270.19 628.366 1289.79 628.366 1298.5C628.366 1320.45 603.282 1351.83 603.282 1376.92Z" fill="#FDB517"/>
<path d="M1056.65 1620C1068.83 1551.81 1039.28 1526.13 1039.28 1469.99C1039.28 1450.08 1048.84 1429.86 1061 1407.54C1085.9 1361.84 1121.62 1307.45 1108.29 1229.47C1104.78 1208.95 1101.79 1192.13 1099.25 1178.33C1087.4 1114.08 1085.27 1115.49 1085.27 1115.49L1074.44 1065.24C1106.97 1011.51 1117.68 964.383 1117.68 964.383C1117.68 964.383 1128.14 975.358 1148.54 975.358C1168.95 975.358 1195.05 957.586 1221.72 908.431C1248.38 859.295 1269.3 820.075 1269.3 778.775C1269.3 737.475 1244.2 728.06 1229.57 728.06C1214.94 728.06 1176.77 733.631 1165.44 775.637C1148.25 839.388 1139.13 839.945 1139.13 839.945C1153.76 803.863 1148 740.075 1148 740.075L1120.3 683.083L1119.45 671.625L1116.64 634.467C1116.72 632.331 1116.77 630.214 1116.79 628.171C1117.55 554.169 1077.77 539.722 1071.16 536.695C1064.36 533.557 1041.89 488.06 1030.9 472.368C1019.93 456.695 1001.64 450.418 990.129 442.043C978.636 433.687 954.071 376.695 917.995 343.752C881.919 310.808 832.772 306.63 801.932 306.63C771.092 306.63 686.928 318.311 686.928 318.311L660.785 278.923C660.785 278.923 670.681 309.508 667.061 325.98C664.795 336.249 600.498 336.082 546.987 380.186C444.868 464.364 430.757 654.337 430.757 654.337C430.534 656.119 430.33 657.921 430.144 659.722C418.15 665.33 407.195 670.957 400.437 675.599L397.633 675.451C393.493 649.898 390.745 628.914 391.562 621.913C394.161 599.425 405.673 445.182 497.153 353.687C591.771 259.053 661.825 254.857 661.825 254.857C686.575 229.063 773.357 193.52 817.269 193.52C853.864 193.52 871.837 215.135 918.348 215.135C951.973 215.135 1008.44 228.728 1073.25 283.622C1138.07 338.515 1220.36 431.477 1227.99 572.758C1231.13 630.808 1277.14 645.887 1277.14 775.637C1277.14 809.787 1303.1 858.942 1305.19 921.69C1307.29 984.42 1285.68 981.988 1285.68 1002.21C1285.68 1022.43 1325.75 1062.51 1329.24 1138.5C1332.73 1214.49 1318.78 1177.53 1321.92 1230.18C1325.06 1282.8 1376.64 1286.3 1376.64 1403.42C1376.64 1416.84 1379 1427.19 1383.12 1435.43C1291.12 1520.06 1179.85 1584.01 1056.65 1620Z" fill="#FDB517"/>
<path d="M451.144 814.317C451.144 814.317 438.481 810.455 427.136 813.129C424.741 811.105 422.921 810.659 422.921 810.659C422.921 810.659 412.023 757.344 403.055 707.001L417.871 706.258C417.871 706.258 426.338 761.374 447.56 802.971C449.695 810.195 451.144 814.317 451.144 814.317Z" fill="#FDB517"/>
<path d="M633.937 745.311L647.881 731.012C647.881 731.012 638.82 719.517 625.229 716.732C625.229 716.732 631.857 751.588 595.948 751.588C560.04 751.588 563.196 725.441 563.196 725.441L528.698 748.45C528.698 748.45 560.058 704.531 596.654 704.531C633.25 704.531 662.53 735.19 662.53 735.19L633.937 745.311Z" fill="#FDB517"/>
<path d="M944.658 687.8C944.658 687.8 949.355 721.263 913.279 721.263C877.203 721.263 877.742 690.938 877.742 690.938L855.777 702.433L864.67 711.848L840.607 706.092C840.607 706.092 875.625 670.01 906.484 670.01C933.666 670.01 957.19 685.182 977.577 703.473L944.658 687.8Z" fill="#FDB517"/>
<path d="M1119.45 671.626L1116.64 634.467C1116.72 632.331 1116.77 630.214 1116.79 628.172L1080.75 598.218L998.855 588.45L956.337 548.357C956.337 548.357 835.038 563.009 783.124 609.36L779.986 623.306L768.827 630.623C768.827 630.623 722.818 628.877 694.243 641.431L673.689 633.408L665.315 617.03C665.315 617.03 598.752 599.611 561.117 599.611C523.481 599.611 510.577 602.396 510.577 602.396L491.063 634.114C491.063 634.114 457.828 646.835 430.144 659.722C418.15 665.33 407.195 670.957 400.437 675.6L397.633 675.451L386.512 674.894L389.984 707.67L403.055 707.002L417.872 706.259C417.872 706.259 426.338 761.375 447.56 802.972C454.579 816.733 462.99 829.007 472.942 837.327C497.97 858.237 513.734 860.632 540.192 859.648C586.554 857.902 702.264 872.536 700.872 673.854C701.559 653.278 733.624 655.377 733.624 655.377C733.624 655.377 762.904 650.493 764.65 683.269C766.395 716.027 797.049 825.479 900.208 822.341C1003.39 819.202 1046.24 798.292 1059.14 683.603C1062.37 654.857 1060.54 647.707 1060.54 647.707L1079.7 629.936L1119.45 671.626ZM686.222 694.411C677.198 827.522 622.091 842.211 541.25 842.211C460.409 842.211 431.815 735.544 435.993 696.51C440.486 654.616 510.577 642.136 510.577 642.136C486.867 667.93 486.867 698.608 486.867 698.608C505.694 659.555 551.703 642.824 551.703 642.824L608.853 642.136L622.797 633.761C656.96 633.761 689.007 653.278 686.222 694.411ZM1038.24 646.315L1032.65 730.66C1032.65 730.66 1029.86 805.256 896.736 805.256C787.988 805.256 770.572 662.341 770.572 662.341C770.572 640.038 804.717 598.218 924.605 598.218C1044.49 598.218 1038.24 646.315 1038.24 646.315Z" fill="#FDB517"/>
<path d="M633.937 745.311L647.881 731.012C647.881 731.012 638.82 719.517 625.229 716.732C625.229 716.732 631.857 751.588 595.948 751.588C560.04 751.588 563.196 725.441 563.196 725.441L528.698 748.45C528.698 748.45 560.058 704.531 596.654 704.531C633.25 704.531 662.53 735.19 662.53 735.19L633.937 745.311Z" fill="#FDB517"/>
<path d="M944.658 687.8C944.658 687.8 949.355 721.263 913.279 721.263C877.203 721.263 877.742 690.938 877.742 690.938L855.777 702.433L864.67 711.848L840.607 706.092C840.607 706.092 875.625 670.01 906.484 670.01C933.666 670.01 957.19 685.182 977.577 703.473L944.658 687.8Z" fill="#FDB517"/>
<path d="M944.658 687.8C944.658 687.8 949.355 721.263 913.279 721.263C877.203 721.263 877.742 690.938 877.742 690.938L855.777 702.433L864.67 711.848L840.607 706.092C840.607 706.092 875.625 670.01 906.484 670.01C933.666 670.01 957.19 685.182 977.577 703.473L944.658 687.8Z" fill="#FDB517"/>
<path d="M633.937 745.311L647.881 731.012C647.881 731.012 638.82 719.517 625.229 716.732C625.229 716.732 631.857 751.588 595.948 751.588C560.04 751.588 563.196 725.441 563.196 725.441L528.698 748.45C528.698 748.45 560.058 704.531 596.654 704.531C633.25 704.531 662.53 735.19 662.53 735.19L633.937 745.311Z" fill="#FDB517"/>
<path d="M633.937 745.311L647.881 731.012C647.881 731.012 638.82 719.517 625.229 716.732C625.229 716.732 631.857 751.588 595.948 751.588C560.04 751.588 563.196 725.441 563.196 725.441L528.698 748.45C528.698 748.45 560.058 704.531 596.654 704.531C633.25 704.531 662.53 735.19 662.53 735.19L633.937 745.311Z" fill="#FDB517"/>
<path d="M944.658 687.8C944.658 687.8 949.355 721.263 913.279 721.263C877.203 721.263 877.742 690.938 877.742 690.938L855.777 702.433L864.67 711.848L840.607 706.092C840.607 706.092 875.625 670.01 906.484 670.01C933.666 670.01 957.19 685.182 977.577 703.473L944.658 687.8Z" fill="#FDB517"/>
<path d="M926.662 683.534C927.115 681.407 923.84 678.907 919.347 677.949C914.853 676.992 910.844 677.939 910.391 680.066C909.938 682.192 913.213 684.692 917.706 685.65C922.199 686.608 926.208 685.66 926.662 683.534Z" fill="#FDB517"/>
<path d="M611.433 717.528C611.886 715.401 608.611 712.901 604.118 711.943C599.625 710.986 595.615 711.933 595.162 714.06C594.709 716.186 597.984 718.686 602.477 719.644C606.97 720.602 610.98 719.654 611.433 717.528Z" fill="#FDB517"/>
<path d="M1279.76 1278.63L1061 1407.52V1407.54L892.892 1506.59L809.247 1389.47L708.874 1498.22L604.025 1449.47L411.948 1360.19L495.593 1184.51L626.918 1249.73L802.972 1337.18L1099.25 1178.33L1208.64 1119.67L1279.76 1278.63Z" fill="#FDB517"/>
<path d="M823.897 0C368.854 0 0 368.951 0 824.03C0 824.81 0 825.608 0.0185671 826.388C0.816953 371.421 369.838 2.84123 824.937 2.84123C1129.66 2.84123 1395.78 168.078 1538.64 413.872C1396.43 166.555 1129.62 0 823.897 0ZM823.897 0C368.854 0 0 368.951 0 824.03C0 824.81 0 825.608 0.0185671 826.388C0.816953 371.421 369.838 2.84123 824.937 2.84123C1129.66 2.84123 1395.78 168.078 1538.64 413.872C1396.43 166.555 1129.62 0 823.897 0ZM823.897 0C368.854 0 0 368.951 0 824.03C0 824.81 0 825.608 0.0185671 826.388C0.816953 371.421 369.838 2.84123 824.937 2.84123C1129.66 2.84123 1395.78 168.078 1538.64 413.872C1396.43 166.555 1129.62 0 823.897 0Z" fill="#FDB517"/>
<path d="M1582.94 1145.03C1616.49 1056.29 1634.85 960.074 1634.85 859.591C1634.85 413.668 1273.44 52.2191 827.611 52.2191C381.777 52.2191 20.3867 413.668 20.3867 859.591C20.3867 1019.74 67.0087 1169.03 147.441 1294.56C55.9427 1163.23 1.70817 1004.03 0.0371342 832.219C0.0185671 831.495 0.0185671 830.789 0.0185671 830.065C0.0185671 828.839 0 827.614 0.0185671 826.388C0 825.608 0 824.81 0 824.03C0 368.951 368.854 0 823.897 0C1129.62 0 1396.43 166.555 1538.64 413.872C1538.77 414.113 1538.92 414.373 1539.07 414.633C1608.23 535.246 1647.78 675.023 1647.78 824.03C1647.78 937.902 1624.7 1046.39 1582.94 1145.03Z" fill="#FDB517"/>
<path d="M2280.14 364.12C2280.14 346.536 2273.78 331.378 2261.04 318.644C2248.31 305.911 2233.15 299.544 2215.57 299.544C2197.38 299.544 2181.91 305.911 2169.18 318.644C2156.45 331.378 2150.08 346.536 2150.08 364.12V1356.41C2150.08 1374.6 2156.45 1390.06 2169.18 1402.8C2181.91 1415.53 2197.38 1421.9 2215.57 1421.9C2233.15 1421.9 2248.31 1415.53 2261.04 1402.8C2273.78 1390.06 2280.14 1374.6 2280.14 1356.41V1157.22C2280.14 1145.7 2285.9 1139.94 2297.42 1139.94H2380.19C2385.04 1139.94 2388.98 1141.46 2392.01 1144.49C2395.65 1147.52 2397.77 1151.16 2398.38 1155.41V1356.41C2398.38 1381.88 2393.53 1405.83 2383.83 1428.26C2374.13 1450.09 2360.79 1469.49 2343.81 1486.47C2327.44 1502.84 2308.03 1515.88 2285.6 1525.58C2263.77 1535.28 2240.43 1540.13 2215.57 1540.13C2190.1 1540.13 2166.15 1535.28 2143.71 1525.58C2121.28 1515.88 2101.88 1502.84 2085.5 1486.47C2069.13 1469.49 2056.1 1450.09 2046.4 1428.26C2036.69 1405.83 2031.84 1381.88 2031.84 1356.41V364.12C2031.84 338.654 2036.69 315.006 2046.4 293.178C2056.1 270.743 2069.13 251.34 2085.5 234.968C2101.88 217.99 2121.28 204.651 2143.71 194.949C2166.15 185.248 2190.1 180.397 2215.57 180.397C2240.43 180.397 2263.77 185.248 2285.6 194.949C2308.03 204.651 2327.44 217.99 2343.81 234.968C2360.79 251.34 2374.13 270.743 2383.83 293.178C2393.53 315.006 2398.38 338.654 2398.38 364.12V490.544C2397.77 494.788 2395.65 498.427 2392.01 501.458C2388.98 504.49 2385.04 506.006 2380.19 506.006H2297.42C2285.9 506.006 2280.14 500.246 2280.14 488.725V364.12ZM2689.43 503.277C2713.68 503.277 2736.12 507.825 2756.73 516.92C2777.95 526.015 2796.45 538.446 2812.21 554.211C2827.98 569.976 2840.41 588.469 2849.5 609.692C2858.6 630.914 2863.15 653.349 2863.15 676.996V1522.85C2863.15 1534.37 2857.69 1540.13 2846.78 1540.13H2767.65C2759.76 1540.13 2754.61 1536.19 2752.18 1528.31C2741.88 1531.95 2731.57 1534.98 2721.26 1537.4C2710.95 1539.22 2700.34 1540.13 2689.43 1540.13C2678.51 1540.13 2667.9 1539.22 2657.59 1537.4C2647.29 1534.98 2636.98 1531.95 2626.67 1528.31C2593.93 1515.58 2567.25 1494.96 2546.63 1466.46C2526.02 1437.36 2515.71 1403.71 2515.71 1365.51V982.596H2518.44H2521.17H2518.44H2515.71V676.996C2515.71 658.806 2518.44 641.222 2523.89 624.244C2529.35 607.266 2536.93 591.804 2546.63 577.858C2556.33 563.912 2567.85 551.482 2581.19 540.568C2595.14 529.654 2610.3 521.165 2626.67 515.101C2644.86 507.219 2665.78 503.277 2689.43 503.277ZM2689.43 1427.35C2707.01 1427.35 2721.56 1421.59 2733.08 1410.07C2745.21 1397.94 2751.28 1383.09 2751.28 1365.51V676.996C2751.28 660.018 2745.21 645.466 2733.08 633.339C2721.56 621.212 2707.01 615.149 2689.43 615.149C2672.45 615.149 2657.9 621.212 2645.77 633.339C2633.64 645.466 2627.58 660.018 2627.58 676.996V1365.51C2627.58 1383.09 2633.64 1397.94 2645.77 1410.07C2657.9 1421.59 2672.45 1427.35 2689.43 1427.35ZM3249.69 565.125L3195.12 618.787C3190.88 623.031 3186.03 624.547 3180.57 623.334L3167.84 616.968C3159.95 612.723 3150.25 610.601 3138.73 610.601C3121.75 610.601 3107.2 616.665 3095.08 628.792C3082.95 640.918 3076.88 655.774 3076.88 673.358V1481.01L3075.98 1526.49V1528.31C3074.76 1531.34 3072.64 1534.07 3069.61 1536.5C3066.58 1538.92 3063.24 1540.13 3059.6 1540.13H2981.38C2972.29 1540.13 2966.83 1536.19 2965.01 1528.31C2964.41 1527.7 2964.1 1526.19 2964.1 1523.76V516.011C2964.1 504.49 2969.86 498.73 2981.38 498.73H3059.6C3063.24 498.73 3066.58 499.942 3069.61 502.368C3072.64 504.793 3074.76 507.522 3075.98 510.554C3086.28 506.915 3096.59 504.187 3106.9 502.368C3117.21 499.942 3127.82 498.73 3138.73 498.73C3160.56 498.73 3181.18 502.671 3200.58 510.554C3218.77 517.223 3235.14 526.622 3249.69 538.749L3251.51 539.658C3258.79 548.147 3258.49 556.333 3250.6 564.215L3249.69 565.125ZM3468.89 504.187C3492.54 504.187 3514.97 508.734 3536.19 517.83C3557.42 526.925 3575.91 539.355 3591.67 555.12C3607.44 570.885 3619.87 589.379 3628.97 610.601C3638.06 631.217 3642.61 653.652 3642.61 677.906V1366.41C3642.61 1390.67 3638.06 1413.41 3628.97 1434.63C3619.87 1455.85 3607.44 1474.34 3591.67 1490.11C3575.91 1505.87 3557.42 1518.3 3536.19 1527.4C3514.97 1536.5 3492.54 1541.04 3468.89 1541.04C3447.06 1541.04 3426.14 1537.1 3406.13 1529.22C3373.39 1516.49 3346.41 1495.87 3325.18 1467.37C3304.57 1438.27 3294.26 1404.61 3294.26 1366.41V677.906C3294.26 659.715 3296.99 642.131 3302.45 625.153C3307.9 608.176 3315.48 592.714 3325.18 578.768C3335.49 564.822 3347.32 552.392 3360.66 541.477C3374.6 530.563 3389.76 522.074 3406.13 516.011C3423.72 508.128 3444.64 504.187 3468.89 504.187ZM3529.83 677.906C3529.83 660.928 3523.76 646.376 3511.64 634.249C3500.12 622.122 3485.87 616.058 3468.89 616.058C3451.3 616.058 3436.45 622.122 3424.32 634.249C3412.8 646.376 3407.04 660.928 3407.04 677.906V1366.41C3407.04 1384 3412.8 1398.85 3424.32 1410.98C3436.45 1422.5 3451.3 1428.26 3468.89 1428.26C3485.87 1428.26 3500.12 1422.5 3511.64 1410.98C3523.76 1398.85 3529.83 1384 3529.83 1366.41V677.906ZM3861.8 1522.85C3861.8 1527.7 3859.98 1531.95 3856.35 1535.59C3852.71 1539.22 3848.46 1541.04 3843.61 1541.04H3760.85C3756 1541.04 3751.75 1539.22 3748.11 1535.59C3745.08 1531.95 3743.56 1527.7 3743.56 1522.85V192.221C3743.56 180.7 3749.33 174.94 3760.85 174.94H3843.61C3848.46 174.94 3852.71 176.759 3856.35 180.397C3859.98 183.428 3861.8 187.37 3861.8 192.221V1522.85Z" fill="#FDB517"/>
</g>
<defs>
<clipPath id="clip0_18_166">
<rect width="3914" height="1620" fill="white"/>
</clipPath>
</defs>
</svg>
