<svg width="32" height="32" viewBox="0 0 32 32" fill="none" xmlns="http://www.w3.org/2000/svg">
<path fill-rule="evenodd" clip-rule="evenodd" d="M22.1001 5.6656C20.3123 4.60746 18.2266 4 16 4C9.376 4 4 9.376 4 16C4 22.624 9.376 28 16 28C22.624 28 28 22.624 28 16C28 13.7734 27.3925 11.6877 26.3344 9.89992C26.067 9.96532 25.7876 10 25.5 10C23.567 10 22 8.433 22 6.5C22 6.21245 22.0347 5.933 22.1001 5.6656ZM20.212 20.788C20.608 18.664 21.388 14.056 21.568 12.16C21.5743 12.0715 21.5707 11.9698 21.5675 11.8827C21.5647 11.8045 21.5623 11.7381 21.568 11.704C21.556 11.608 21.52 11.476 21.4 11.38C21.256 11.26 21.028 11.236 20.932 11.236C20.476 11.236 19.792 11.476 16.456 12.868C15.292 13.348 12.964 14.356 9.46 15.88C8.896 16.108 8.596 16.324 8.572 16.54C8.52896 16.9166 8.99717 17.0616 9.63934 17.2606C9.71342 17.2835 9.78981 17.3072 9.868 17.332C10.48 17.536 11.296 17.764 11.728 17.776C12.112 17.788 12.544 17.62 13.024 17.296C16.3 15.088 17.98 13.972 18.088 13.948C18.0974 13.9467 18.107 13.9452 18.1166 13.9437C18.1932 13.9317 18.2761 13.9187 18.34 13.972C18.3668 14.0004 18.3863 14.0349 18.3968 14.0726C18.4072 14.1102 18.4083 14.1498 18.4 14.188C18.3523 14.3881 16.4049 16.1929 15.5152 17.0174C15.2846 17.2311 15.125 17.379 15.088 17.416C14.9958 17.5098 14.902 17.5989 14.8117 17.6846C14.2325 18.2348 13.7962 18.6492 14.824 19.324C15.3311 19.6581 15.7344 19.9329 16.1415 20.2102C16.5533 20.4908 16.969 20.774 17.5 21.124C17.6348 21.2131 17.7639 21.3051 17.8896 21.3947C18.3907 21.7519 18.8397 22.072 19.396 22.024C19.708 21.988 20.044 21.688 20.212 20.788Z" fill="#144FE2"/>
<circle cx="25.5" cy="6.5" r="2.5" fill="#24E214"/>
</svg>
